<?xml version="1.0" standalone="no"?><!DOCTYPE svg PUBLIC "-//W3C//DTD SVG 1.1//EN" "http://www.w3.org/Graphics/SVG/1.1/DTD/svg11.dtd"><svg t="1748188137746" class="icon" viewBox="0 0 1024 1024" version="1.1" xmlns="http://www.w3.org/2000/svg" p-id="35240" xmlns:xlink="http://www.w3.org/1999/xlink" width="256" height="256"><path d="M810.6496 384V298.6496a85.3504 85.3504 0 0 0-78.8992-85.0944l-6.4-0.2048h-128V128h128A170.6496 170.6496 0 0 1 896 298.6496V384h-85.3504zM238.9504 93.8496L51.2 563.2h91.9552l51.2-128h174.5408l51.2 128h91.8528L324.2496 93.8496H238.9504zM281.6 216.9856l53.248 132.864H228.4544L281.6 216.9856z m418.0992 224.4096v85.3504h-170.6496v298.6496h170.6496v128h85.3504v-128h170.6496v-298.6496h-170.6496V441.344h-85.3504zM298.6496 896A170.6496 170.6496 0 0 1 128 725.3504V640h85.3504v85.3504a85.3504 85.3504 0 0 0 85.2992 85.2992h128V896h-128z m486.4-283.9552h85.2992v128h-85.2992v-128z m-170.7008 0h85.3504v128h-85.3504v-128z" p-id="35241"></path></svg>